<?xml version="1.0" encoding="UTF-8" standalone="no"?>
<svg
   xmlns:dc="http://purl.org/dc/elements/1.1/"
   xmlns:cc="http://creativecommons.org/ns#"
   xmlns:rdf="http://www.w3.org/1999/02/22-rdf-syntax-ns#"
   xmlns:svg="http://www.w3.org/2000/svg"
   xmlns="http://www.w3.org/2000/svg"
   xmlns:sodipodi="http://sodipodi.sourceforge.net/DTD/sodipodi-0.dtd"
   xmlns:inkscape="http://www.inkscape.org/namespaces/inkscape"
   inkscape:version="1.0 (4035a4fb49, 2020-05-01)"
   sodipodi:docname="IoT-Now-logo.svg"
   version="1.1"
   id="svg2"
   xml:space="preserve"
   width="225"
   height="74"
   viewBox="0 0 225 73.999996"><sodipodi:namedview
     inkscape:current-layer="g10"
     inkscape:window-maximized="1"
     inkscape:window-y="-8"
     inkscape:window-x="-8"
     inkscape:cy="53.009228"
     inkscape:cx="132.42356"
     inkscape:zoom="5.6836174"
     showgrid="false"
     id="namedview77"
     inkscape:window-height="1017"
     inkscape:window-width="1920"
     inkscape:pageshadow="2"
     inkscape:pageopacity="0"
     guidetolerance="10"
     gridtolerance="10"
     objecttolerance="10"
     borderopacity="1"
     bordercolor="#666666"
     pagecolor="#ffffff" /><metadata
     id="metadata8"><rdf:RDF><cc:Work
         rdf:about=""><dc:format>image/svg+xml</dc:format><dc:type
           rdf:resource="http://purl.org/dc/dcmitype/StillImage" /><dc:title></dc:title></cc:Work></rdf:RDF></metadata><defs
     id="defs6"><clipPath
       clipPathUnits="userSpaceOnUse"
       id="clipPath24"><path
         d="M 0,164 H 502 V 0 H 0 Z"
         id="path22" /></clipPath></defs><g
     id="g10"
     transform="matrix(1.3333333,0,0,-1.3333333,0.99529146,220.15961)"><g
       id="g14"
       transform="matrix(0.38814588,0,0,0.38814588,20.888156,157.22596)"><path
         d="M 0,0 -31.507,-69.315 H -55.662 L -24.155,0 Z"
         style="fill:#f03a32;fill-opacity:1;fill-rule:nonzero;stroke:none"
         id="path16" /></g><g
       transform="matrix(0.38814588,0,0,0.38814588,-15.50774,107.9229)"
       id="g18"><g
         id="g20"
         clip-path="url(#clipPath24)"><g
           id="g26"
           transform="translate(143.2905,105.2095)"><path
             d="m 0,0 c 0,-0.862 -0.324,-1.993 -0.97,-3.394 l -16.48,-36.354 c -1.401,-3.124 -3.179,-5.223 -5.333,-6.3 -1.938,-0.97 -4.901,-1.454 -8.886,-1.454 H -55.34 c -2.37,0 -4.227,0.524 -5.574,1.575 -1.346,1.05 -2.02,2.464 -2.02,4.241 0,0.809 0.323,1.938 0.97,3.393 l 16.4,36.354 c 1.399,3.124 3.203,5.224 5.412,6.302 1.885,0.969 4.82,1.454 8.806,1.454 h 23.671 c 2.369,0 4.241,-0.525 5.615,-1.575 C -0.687,3.191 0,1.777 0,0 m -21.975,-8.24 c 0,1.562 -1.023,2.343 -3.069,2.343 -2.478,0 -4.229,-1.132 -5.251,-3.394 l -10.261,-22.781 c -0.215,-0.485 -0.323,-0.97 -0.323,-1.454 0,-1.51 1.131,-2.264 3.393,-2.264 2.154,0 3.744,1.132 4.766,3.394 l 10.422,22.944 c 0.215,0.485 0.323,0.889 0.323,1.212"
             style="fill:#f03a32;fill-opacity:1;fill-rule:nonzero;stroke:none"
             id="path28" /></g><g
           id="g30"
           transform="translate(211.6929,127.022)"><path
             d="M 0,0 -6.932,-15.228 H -22.685 L -47.26,-69.315 h -24.156 l 24.576,54.087 H -64.695 L -57.763,0 Z"
             style="fill:#f03a32;fill-opacity:1;fill-rule:nonzero;stroke:none"
             id="path32" /></g><g
           id="g34"
           transform="translate(279.959,119.355)"><path
             d="m 0,0 c 0,-1.191 -0.386,-2.625 -1.156,-4.306 l -26.046,-57.342 h -24.154 l 22.474,49.466 c 0.21,0.489 0.315,1.015 0.315,1.576 0,2.029 -1.225,3.045 -3.676,3.045 h -5.042 L -61.859,-61.648 H -86.015 L -54.509,7.667 H -9.873 C -3.293,7.667 0,5.111 0,0"
             style="fill:#393536;fill-opacity:1;fill-rule:nonzero;stroke:none"
             id="path36" /></g><g
           id="g38"
           transform="translate(351.584,119.4604)"><path
             d="m 0,0 c 0,-1.121 -0.42,-2.591 -1.26,-4.411 l -21.424,-47.26 c -1.822,-4.062 -4.132,-6.792 -6.932,-8.192 -2.522,-1.261 -6.372,-1.89 -11.554,-1.89 h -30.771 c -3.082,0 -5.495,0.681 -7.247,2.048 -1.75,1.364 -2.625,3.203 -2.625,5.512 0,1.051 0.419,2.522 1.259,4.412 l 21.321,47.26 c 1.819,4.06 4.165,6.791 7.037,8.193 2.449,1.259 6.265,1.89 11.446,1.89 h 30.772 c 3.082,0 5.515,-0.683 7.3,-2.047 C -0.893,4.149 0,2.31 0,0 m -28.565,-10.712 c 0,2.03 -1.331,3.045 -3.993,3.045 -3.221,0 -5.497,-1.47 -6.827,-4.411 l -13.337,-29.616 c -0.281,-0.63 -0.42,-1.261 -0.42,-1.89 0,-1.961 1.47,-2.942 4.412,-2.942 2.799,0 4.865,1.472 6.197,4.412 l 13.548,29.826 c 0.278,0.631 0.42,1.155 0.42,1.576"
             style="fill:#393536;fill-opacity:1;fill-rule:nonzero;stroke:none"
             id="path40" /></g><g
           id="g42"
           transform="translate(472.8867,127.022)"><path
             d="m 0,0 -6.931,-15.228 h -1.785 c -4.901,0 -8.509,-1.785 -10.817,-5.356 l -31.613,-48.731 h -15.333 l -4.832,38.648 -21.634,-38.648 h -15.334 L -115.736,0 h 23.105 L -91.055,-36.548 -69,0 h 14.702 l 3.361,-36.548 17.54,30.878 C -31.229,-1.889 -26.886,0 -20.375,0 H 0"
             style="fill:#393536;fill-opacity:1;fill-rule:nonzero;stroke:none"
             id="path44" /></g><g
           id="g46"
           transform="translate(39.4814,39.627)"><path
             d="M 0,0 H 2.52 V -4.531 H 7.165 V 0 H 9.684 V -11.45 H 7.165 v 4.596 H 2.52 V -11.45 H 0 Z"
             style="fill:#393536;fill-opacity:1;fill-rule:nonzero;stroke:none"
             id="path48" /></g><g
           id="g50"
           transform="translate(52.2998,33.8691)"><path
             d="m 0,0 v 0.033 c 0,3.255 2.567,5.922 6.101,5.922 3.533,0 6.069,-2.635 6.069,-5.89 V 0.033 C 12.17,-3.223 9.602,-5.889 6.069,-5.889 2.535,-5.889 0,-3.255 0,0 M 9.536,0 V 0.033 C 9.536,1.995 8.097,3.632 6.069,3.632 4.04,3.632 2.633,2.027 2.633,0.065 V 0.033 c 0,-1.964 1.44,-3.599 3.468,-3.599 2.028,0 3.435,1.603 3.435,3.566"
             style="fill:#393536;fill-opacity:1;fill-rule:nonzero;stroke:none"
             id="path52" /></g><g
           id="g54"
           transform="translate(66.0659,39.627)"><path
             d="M 0,0 H 2.699 L 5.071,-7.754 7.639,0.033 H 9.798 L 12.366,-7.754 14.738,0 h 2.633 L 13.462,-11.532 H 11.27 L 8.686,-4.04 6.101,-11.532 H 3.91 Z"
             style="fill:#393536;fill-opacity:1;fill-rule:nonzero;stroke:none"
             id="path56" /></g><g
           id="g58"
           transform="translate(94.6631,37.3047)"><path
             d="M 0,0 H -3.484 V 2.322 H 6.003 V 0 H 2.519 V -9.128 H 0 Z"
             style="fill:#393536;fill-opacity:1;fill-rule:nonzero;stroke:none"
             id="path60" /></g><g
           id="g62"
           transform="translate(102.4927,33.8691)"><path
             d="m 0,0 v 0.033 c 0,3.255 2.568,5.922 6.101,5.922 3.534,0 6.069,-2.635 6.069,-5.89 V 0.033 C 12.17,-3.223 9.602,-5.889 6.069,-5.889 2.536,-5.889 0,-3.255 0,0 m 9.537,0 v 0.033 c 0,1.962 -1.44,3.599 -3.468,3.599 -2.028,0 -3.435,-1.605 -3.435,-3.567 V 0.033 c 0,-1.964 1.439,-3.599 3.467,-3.599 2.029,0 3.436,1.603 3.436,3.566"
             style="fill:#393536;fill-opacity:1;fill-rule:nonzero;stroke:none"
             id="path64" /></g><g
           id="g66"
           transform="translate(123.6011,39.627)"><path
             d="M 0,0 H 5.234 C 6.69,0 7.818,-0.408 8.571,-1.161 9.209,-1.799 9.552,-2.699 9.552,-3.778 v -0.033 c 0,-1.849 -0.997,-3.01 -2.453,-3.549 l 2.797,-4.09 H 6.952 L 4.498,-7.786 H 2.519 V -11.45 H 0 V 0 m 5.07,-5.561 c 1.227,0 1.93,0.654 1.93,1.619 v 0.032 c 0,1.08 -0.752,1.637 -1.979,1.637 H 2.519 v -3.288 z"
             style="fill:#393536;fill-opacity:1;fill-rule:nonzero;stroke:none"
             id="path68" /></g><g
           id="g70"
           transform="translate(136.1406,33.084)"><path
             d="M 0,0 V 6.543 H 2.519 V 0.065 c 0,-1.864 0.933,-2.829 2.47,-2.829 1.538,0 2.47,0.932 2.47,2.747 v 6.56 h 2.52 V 0.082 C 9.979,-3.387 8.032,-5.087 4.957,-5.087 1.881,-5.087 0,-3.369 0,0"
             style="fill:#393536;fill-opacity:1;fill-rule:nonzero;stroke:none"
             id="path72" /></g><g
           id="g74"
           transform="translate(149.5806,39.627)"><path
             d="M 0,0 H 2.322 L 7.687,-7.051 V 0 h 2.487 V -11.45 H 8.031 L 2.485,-4.172 V -11.45 H 0 Z"
             style="fill:#393536;fill-opacity:1;fill-rule:nonzero;stroke:none"
             id="path76" /></g><g
           id="g78"
           transform="translate(173.1265,39.709)"><path
             d="M 0,0 H 2.321 L 7.229,-11.532 H 4.596 L 3.549,-8.965 H -1.293 L -2.34,-11.532 H -4.908 L 0,0 m 2.649,-6.739 -1.521,3.714 -1.522,-3.714 z"
             style="fill:#393536;fill-opacity:1;fill-rule:nonzero;stroke:none"
             id="path80" /></g><g
           id="g82"
           transform="translate(183.0156,39.627)"><path
             d="M 0,0 H 2.321 L 7.687,-7.051 V 0 h 2.486 V -11.45 H 8.031 L 2.485,-4.172 V -11.45 H 0 Z"
             style="fill:#393536;fill-opacity:1;fill-rule:nonzero;stroke:none"
             id="path84" /></g><path
           d="m 202.749,28.177 h 2.52 v 11.45 h -2.52 z"
           style="fill:#393536;fill-opacity:1;fill-rule:nonzero;stroke:none"
           id="path86" /><g
           id="g88"
           transform="translate(208.3398,32.5117)"><path
             d="m 0,0 v 0.032 c 0,2.52 2.029,4.564 4.761,4.564 2.715,0 4.727,-2.012 4.727,-4.532 V 0.032 C 9.488,-2.486 7.46,-4.531 4.728,-4.531 2.013,-4.531 0,-2.52 0,0 m 7.035,0 v 0.032 c 0,1.293 -0.934,2.421 -2.307,2.421 -1.424,0 -2.273,-1.096 -2.273,-2.389 V 0.032 c 0,-1.292 0.932,-2.421 2.306,-2.421 1.423,0 2.274,1.097 2.274,2.389"
             style="fill:#393536;fill-opacity:1;fill-rule:nonzero;stroke:none"
             id="path90" /></g><g
           id="g92"
           transform="translate(223.4492,37.3047)"><path
             d="M 0,0 H -3.484 V 2.322 H 6.002 V 0 H 2.519 V -9.128 H 0 Z"
             style="fill:#393536;fill-opacity:1;fill-rule:nonzero;stroke:none"
             id="path94" /></g><g
           id="g96"
           transform="translate(238.0796,39.627)"><path
             d="M 0,0 H 8.638 V -2.24 H 2.504 V -4.563 H 7.901 V -6.805 H 2.504 V -9.209 H 8.72 V -11.45 H 0 Z"
             style="fill:#f03a32;fill-opacity:1;fill-rule:nonzero;stroke:none"
             id="path98" /></g><g
           id="g100"
           transform="translate(249.9346,39.627)"><path
             d="M 0,0 H 2.323 L 7.688,-7.051 V 0 h 2.485 V -11.45 H 8.032 L 2.485,-4.172 V -11.45 H 0 Z"
             style="fill:#f03a32;fill-opacity:1;fill-rule:nonzero;stroke:none"
             id="path102" /></g><g
           id="g104"
           transform="translate(267.6758,39.709)"><path
             d="M 0,0 H 2.321 L 7.229,-11.532 H 4.596 L 3.549,-8.965 H -1.292 L -2.34,-11.532 H -4.908 L 0,0 m 2.649,-6.739 -1.521,3.714 -1.522,-3.714 z"
             style="fill:#f03a32;fill-opacity:1;fill-rule:nonzero;stroke:none"
             id="path106" /></g><g
           id="g108"
           transform="translate(277.5645,39.627)"><path
             d="m 0,0 h 5.316 c 1.31,0 2.339,-0.36 2.995,-1.014 0.523,-0.523 0.785,-1.162 0.785,-1.947 v -0.032 c 0,-1.293 -0.688,-2.012 -1.506,-2.47 1.325,-0.508 2.144,-1.276 2.144,-2.814 V -8.31 c 0,-2.093 -1.701,-3.14 -4.287,-3.14 L 0,-11.45 V 0 m 6.593,-3.387 c 0,0.753 -0.589,1.179 -1.653,1.179 H 2.454 v -2.421 h 2.323 c 1.114,0 1.816,0.359 1.816,1.21 z M 5.366,-6.723 H 2.454 v -2.519 h 2.993 c 1.114,0 1.784,0.392 1.784,1.244 v 0.032 c 0,0.769 -0.573,1.243 -1.865,1.243"
             style="fill:#f03a32;fill-opacity:1;fill-rule:nonzero;stroke:none"
             id="path110" /></g><g
           id="g112"
           transform="translate(290.2676,39.627)"><path
             d="m 0,0 h 2.52 v -9.16 h 5.709 v -2.29 H 0 Z"
             style="fill:#f03a32;fill-opacity:1;fill-rule:nonzero;stroke:none"
             id="path114" /></g><g
           id="g116"
           transform="translate(301.2891,39.627)"><path
             d="M 0,0 H 8.637 V -2.24 H 2.503 V -4.563 H 7.9 V -6.805 H 2.503 V -9.209 H 8.717 V -11.45 H 0 Z"
             style="fill:#f03a32;fill-opacity:1;fill-rule:nonzero;stroke:none"
             id="path118" /></g><g
           id="g120"
           transform="translate(313.1406,39.627)"><path
             d="m 0,0 h 4.467 c 3.599,0 6.084,-2.47 6.084,-5.692 v -0.033 c 0,-3.222 -2.485,-5.725 -6.084,-5.725 H 0 V 0 m 2.521,-2.273 v -6.904 h 1.946 c 2.06,0 3.451,1.391 3.451,3.419 v 0.033 c 0,2.029 -1.391,3.452 -3.451,3.452 z"
             style="fill:#f03a32;fill-opacity:1;fill-rule:nonzero;stroke:none"
             id="path122" /></g><g
           id="g124"
           transform="translate(332.6309,39.627)"><path
             d="m 0,0 h 5.315 c 1.309,0 2.339,-0.36 2.994,-1.014 0.524,-0.523 0.785,-1.162 0.785,-1.947 v -0.032 c 0,-1.293 -0.687,-2.012 -1.505,-2.47 1.325,-0.508 2.142,-1.276 2.142,-2.814 V -8.31 c 0,-2.093 -1.7,-3.14 -4.285,-3.14 L 0,-11.45 V 0 m 6.592,-3.387 c 0,0.753 -0.59,1.179 -1.653,1.179 H 2.453 v -2.421 h 2.322 c 1.114,0 1.817,0.359 1.817,1.21 z M 5.365,-6.723 H 2.453 v -2.519 h 2.993 c 1.114,0 1.783,0.392 1.783,1.244 v 0.032 c 0,0.769 -0.572,1.243 -1.864,1.243"
             style="fill:#393536;fill-opacity:1;fill-rule:nonzero;stroke:none"
             id="path126" /></g><g
           id="g128"
           transform="translate(345.1543,33.084)"><path
             d="M 0,0 V 6.543 H 2.519 V 0.065 c 0,-1.864 0.932,-2.829 2.469,-2.829 1.538,0 2.471,0.932 2.471,2.747 v 6.56 H 9.978 V 0.082 C 9.978,-3.387 8.032,-5.087 4.956,-5.087 1.88,-5.087 0,-3.369 0,0"
             style="fill:#393536;fill-opacity:1;fill-rule:nonzero;stroke:none"
             id="path130" /></g><g
           id="g132"
           transform="translate(357.8076,29.8447)"><path
             d="m 0,0 1.489,1.784 c 1.032,-0.851 2.112,-1.39 3.419,-1.39 1.03,0 1.653,0.408 1.653,1.079 V 1.505 C 6.561,2.144 6.168,2.47 4.254,2.961 1.946,3.55 0.459,4.187 0.459,6.462 v 0.033 c 0,2.076 1.669,3.45 4.008,3.45 1.668,0 3.091,-0.523 4.252,-1.456 L 7.411,6.593 C 6.396,7.296 5.398,7.722 4.434,7.722 3.468,7.722 2.961,7.28 2.961,6.724 V 6.69 C 2.961,5.938 3.452,5.692 5.432,5.187 7.755,4.581 9.063,3.746 9.063,1.751 V 1.718 c 0,-2.274 -1.735,-3.55 -4.205,-3.55 C 3.125,-1.832 1.375,-1.227 0,0"
             style="fill:#393536;fill-opacity:1;fill-rule:nonzero;stroke:none"
             id="path134" /></g><path
           d="m 370.07,28.177 h 2.52 v 11.45 h -2.52 z"
           style="fill:#393536;fill-opacity:1;fill-rule:nonzero;stroke:none"
           id="path136" /><g
           id="g138"
           transform="translate(376.3506,39.627)"><path
             d="M 0,0 H 2.321 L 7.687,-7.051 V 0 h 2.486 V -11.45 H 8.03 L 2.485,-4.172 V -11.45 H 0 Z"
             style="fill:#393536;fill-opacity:1;fill-rule:nonzero;stroke:none"
             id="path140" /></g><g
           id="g142"
           transform="translate(390.165,39.627)"><path
             d="M 0,0 H 8.636 V -2.24 H 2.503 V -4.563 H 7.9 V -6.805 H 2.503 V -9.209 H 8.719 V -11.45 H 0 Z"
             style="fill:#393536;fill-opacity:1;fill-rule:nonzero;stroke:none"
             id="path144" /></g><g
           id="g146"
           transform="translate(401.2334,29.8447)"><path
             d="m 0,0 1.487,1.784 c 1.032,-0.851 2.112,-1.39 3.419,-1.39 1.031,0 1.654,0.408 1.654,1.079 V 1.505 C 6.56,2.144 6.166,2.47 4.253,2.961 1.946,3.55 0.457,4.187 0.457,6.462 v 0.033 c 0,2.076 1.669,3.45 4.008,3.45 1.668,0 3.092,-0.523 4.254,-1.456 L 7.409,6.593 C 6.396,7.296 5.398,7.722 4.432,7.722 3.468,7.722 2.96,7.28 2.96,6.724 V 6.69 C 2.96,5.938 3.451,5.692 5.431,5.187 7.753,4.581 9.063,3.746 9.063,1.751 V 1.718 c 0,-2.274 -1.736,-3.55 -4.205,-3.55 C 3.124,-1.832 1.373,-1.227 0,0"
             style="fill:#393536;fill-opacity:1;fill-rule:nonzero;stroke:none"
             id="path148" /></g><g
           id="g150"
           transform="translate(412.4326,29.8447)"><path
             d="M 0,0 1.488,1.784 C 2.52,0.933 3.6,0.394 4.907,0.394 c 1.03,0 1.654,0.408 1.654,1.079 V 1.505 C 6.561,2.144 6.167,2.47 4.254,2.961 1.947,3.55 0.458,4.187 0.458,6.462 v 0.033 c 0,2.076 1.669,3.45 4.008,3.45 1.668,0 3.092,-0.523 4.253,-1.456 L 7.41,6.593 C 6.396,7.296 5.397,7.722 4.433,7.722 3.469,7.722 2.96,7.28 2.96,6.724 V 6.69 C 2.96,5.938 3.451,5.692 5.431,5.187 7.754,4.581 9.063,3.746 9.063,1.751 V 1.718 c 0,-2.274 -1.735,-3.55 -4.204,-3.55 C 3.124,-1.832 1.374,-1.227 0,0"
             style="fill:#393536;fill-opacity:1;fill-rule:nonzero;stroke:none"
             id="path152" /></g></g></g></g></svg>
